<svg preserveAspectRatio="none" overflow="visible" style="display: block;" width="20" height="20" viewBox="0 0 20 20" fill="none" xmlns="http://www.w3.org/2000/svg">
<g id="Frame">
<path id="Vector" d="M5.09625 17.9167C4.49083 17.9167 3.97618 17.7063 3.55229 17.2856C3.12854 16.8649 2.91667 16.3541 2.91667 15.7531V4.26292C2.91667 3.6575 3.12854 3.14285 3.55229 2.71896C3.97618 2.29521 4.49083 2.08333 5.09625 2.08333H14.0065V14.8398H5.09625C4.83875 14.8398 4.61944 14.9272 4.43833 15.1019C4.25722 15.2767 4.16667 15.4934 4.16667 15.7519C4.16667 16.0102 4.25722 16.2273 4.43833 16.4031C4.61944 16.5788 4.83875 16.6667 5.09625 16.6667H15.8333V3.75H17.0833V17.9167H5.09625ZM7.24354 13.5898H12.7565V3.33333H7.24354V13.5898ZM5.99354 13.5898V3.33333H5.09625C4.83278 3.33333 4.61201 3.42389 4.43396 3.605C4.25576 3.78611 4.16667 4.00542 4.16667 4.26292V13.8317C4.31083 13.7633 4.45819 13.7059 4.60875 13.6594C4.75931 13.613 4.92181 13.5898 5.09625 13.5898H5.99354Z" fill="#0377EA"/>
</g>
</svg>
