<svg preserveAspectRatio="none" overflow="visible" style="display: block;" width="32.9223" height="27.026" viewBox="0 0 32.9223 27.026" fill="none" xmlns="http://www.w3.org/2000/svg">
<g id="Group 1">
<path id="Vector" d="M7.64319 2.41867V2.42301C7.64319 2.42301 8.17769 6.51436 8.17769 13.4979C8.17769 20.4816 7.64319 24.5772 7.64319 24.5722V24.5765C10.375 21.677 12.0508 17.7832 12.0508 13.4987V13.4966C12.0508 9.21204 10.375 5.31812 7.64319 2.41867Z" fill="#2C2C2C"/>
<path id="Vector_2" d="M7.73967 9.7529C7.16685 7.58753 6.09425 5.54728 4.60866 3.69362C3.33426 2.26233 1.78719 1.01329 0.0339936 3.7592e-05C1.73439 2.68759 2.8786 7.71409 2.8786 13.4718C2.8786 19.2295 1.73656 24.2444 0.039781 26.9349C0.0267622 26.9653 0.0130188 26.9956 0 27.026C0.977857 26.4634 1.89206 25.8276 2.73033 25.1275C5.62412 22.3734 7.52776 19.0682 8.06225 15.473C8.13892 14.8322 8.1787 14.1798 8.1787 13.5181C8.1787 12.2213 8.02609 10.9622 7.73967 9.7529Z" fill="#2C2C2C"/>
<path id="Vector_3" d="M23.9705 0H14.8023L14.7994 27.0259H19.4131L19.4167 17.2883H23.9705C29.3342 17.2883 32.9223 13.5846 32.9223 8.64414C32.9223 3.70371 29.3342 0 23.9705 0ZM23.3912 12.8888H19.4167V4.39946H23.3912C26.5554 4.39946 28.2153 6.09763 28.2153 8.64414C28.2153 11.1907 26.5554 12.8888 23.3912 12.8888Z" fill="#2C2C2C"/>
</g>
</svg>
